<?xml version="1.0" encoding="utf-8"?>
<!-- Generator: Adobe Illustrator 17.0.0, SVG Export Plug-In . SVG Version: 6.00 Build 0)  -->
<!DOCTYPE svg PUBLIC "-//W3C//DTD SVG 1.1//EN" "http://www.w3.org/Graphics/SVG/1.1/DTD/svg11.dtd">
<svg version="1.1" id="Layer_1" xmlns="http://www.w3.org/2000/svg" xmlns:xlink="http://www.w3.org/1999/xlink" x="0px" y="0px"
	 width="24px" height="24px" viewBox="0 0 24 24" enable-background="new 0 0 24 24" xml:space="preserve">
<g id="Icons" style="opacity:0.75">
<g id="Journal">
<path fill="#000000" d="M18,4H6C4,3.993,3,4.993,3,6.993L3.014,16C3,18,4,18.988,6,19h12c2-0.012,2.994-1,3-3.006V6.993C20.994,4.993,20,3.993,18,4z"/>
<path fill="#FFFFFF" d="M4.565,17.112c-0.374,0.02-0.374-0.257-0.374-0.471V8.409c0-0.222,0.181-0.403,0.404-0.403h0.033
	c0.223,0,0.404,0.181,0.404,0.403v7.82c2.383-0.299,4.165-0.387,6.376,0.242c0.346,0.198,0.189,0.688-0.178,0.64z"/>
<path fill="#FFFFFF" d="M8.027,6.702c2.331,0.129,3.68,0.955,3.68,0.955l-0.003,8.061c-2.844-1.127-5.897-0.459-5.897-0.459
	l0.001-8.133C5.808,7.126,6.321,6.702,8.027,6.702z"/>
<path fill="#FFFFFF" d="M12.81,17.112c-0.367,0.047-0.523-0.443-0.178-0.64c2.211-0.63,3.994-0.542,6.376-0.242v-7.82
	c0-0.222,0.181-0.403,0.404-0.403h0.033c0.223,0,0.404,0.181,0.404,0.403v8.232c0,0.214,0,0.491-0.374,0.471z"/>
<path fill="#FFFFFF" d="M18.232,7.126l0.001,8.133c0,0-3.054-0.668-5.897,0.459l-0.003-8.061c0,0,1.349-0.826,3.68-0.955
	C17.719,6.702,18.232,7.126,18.232,7.126z"/>
</g>
</g>
</svg>
